<?xml version="1.0" standalone="no"?><!DOCTYPE svg PUBLIC "-//W3C//DTD SVG 1.1//EN" "http://www.w3.org/Graphics/SVG/1.1/DTD/svg11.dtd"><svg class="icon" width="64px" height="64.00px" viewBox="0 0 1024 1024" version="1.1" xmlns="http://www.w3.org/2000/svg"><path d="M63.5 69.6h890v890h-890z" fill="#FFFFFF" /><path d="M508.5 514.6m-445 0a445 445 0 1 0 890 0 445 445 0 1 0-890 0Z" fill="#F16A54" /><path d="M930.8 655.3c14.6-44.9 22.5-92.9 22.7-142.6-0.2-41.8-6.1-82.3-17.1-120.7-5.9-5.8-13.9-13.6-24.6-24.1l-41.6 20.4-20.8 20.4h-62.5-83.3l-20.8-20.4H662l-20.8-20.4-41.6-40.8-20.8 20.4-41.6-20.4v20.4l-41.6-20.4h-20.8l20.8 20.4h-20.8L454 327.1v40.8l-41.6 20.4-41.6-20.4 41.6 40.8-41.6 20.4 20.8 20.4H350l20.8 20.4-20.8 20.4 20.8 20.4-83.3-40.8-41.6-40.8-41.6 20.4 20.8 20.4-20.8 20.4 104.1 102-41.6 20.4v40.8L246 673.9l-20.8 20.4 248.5 263.8c11.6 0.9 23.3 1.4 35.1 1.4 196.3 0.1 363.1-127.4 422-304.2z" fill="#D95843" /><path d="M429.5 570.2H471v20.5h82.8v-20.5h20.7v20.5h20.7v-20.5s20.7 0 20.7-20.5v20.5c-20.7 20.5-41.5 41-83 41v-20.5h-20.7v20.5h-20.7c-20.5 0-41.2-20.5-62-41z m83-41c-41.5-20.5-62.2-41-83-41-20.7 0-20.7 0-20.7 20.5s0 41 41.5 41c20.7 0 41.5-20.5 62.2-20.5z m41.5-20.5c20.7 0 41.5-20.5 83-41v20.5c20.7 20.5 0 41-20.7 41-41.5 20.5-41.5 0-62.2 0-20.8 0-20.8 0-0.1-20.5z m-20.7-163.9v-20.5c-20.7 0 0-20.5 0 0 20.7 0 20.7 0 20.7 20.5v20.5c20.7 0 20.7 0 20.7-20.5v-20.5h20.7v41c20.7 20.5 20.7 20.5 20.7 0s20.7-20.5 20.7 0v41l20.7-20.5c20.7 0 20.7 0 20.7 20.5h-20.7v20.5c0 20.5 0 20.5 20.7 0 0 0 20.7-20.5 41.5-20.5 41.5-20.5 83 0 103.7 0s20.7 0 20.7-20.5c20.7 0 41.5-20.5 62.2-20.5v20.5c-20.7 0-20.7 0-41.5 20.5v20.5c20.7 0 20.7 20.5 0 20.5v-20.5h-41.5c-20.7 0-62.2-20.5-103.7 0-20.7 0-20.7 20.5-41.5 20.5l-20.7 20.5c0 20.5 20.7 20.5 20.7 20.5 0-20.5 0-20.5 20.7-20.5 0 0 20.7 20.5 0 20.5h-20.7v20.5h20.7c20.7 20.5 20.7 20.5 0 20.5h-20.7v20.5c41.5 0 62.2 20.5 83 41h41.5c0 20.5 20.7 20.5 20.7 41h-20.7v-20.5c-20.7 0-20.7 0-20.7 20.5v20.5h-20.7v-20.5-41c-20.7-20.5-41.5-20.5-83-20.5h-20.7 20.7v20.5s-20.7 20.5-20.7 0h-20.7l20.7 20.5c0 20.5 20.7 41 0 61.5 0 20.5-20.7 41-41.5 41-20.7 20.5-20.7 20.5-20.7 41s-20.7 20.5-20.7 20.5c0 20.5-20.7 0-20.7 0l20.7-20.5c0-20.5-20.7-20.5-20.7-20.5s-20.7 0-20.7-20.5c20.7 0 41.5 20.5 62.2 0s41.5-20.5 62.2-41c0-20.5 0-41-20.7-41 0-20.5 0-20.5-20.7-20.5v61.5h-20.7v-20.5c0-20.5 0-20.5-20.7-20.5-20.7 20.5-20.7 20.5 0 20.5 0 20.5 0 20.5-20.7 20.5v-20.5h-20.7c-20.7 0-20.7 0 0 20.5h-20.7L492 652.3h-20.7c0 20.5-20.7 20.5-20.7 0 20.7 0 20.7-20.5 0-20.5h-20.7c0 20.5-20.7 20.5-41.5 41v20.5c20.7 20.5 41.5 20.5 62.2 41h20.7c0-20.5 20.7-20.5 20.7-20.5 20.7 0 20.7 20.5 0 20.5s-20.7 20.5-20.7 20.5c20.7 0 20.7 20.5 0 20.5h-20.7c0-20.5 0-20.5-20.7-20.5-20.7-20.5-41.5-41-62.2-61.5 0-20.5 0-41 20.7-41 0-20.5 20.7-20.5 20.7-20.5 20.7 0 20.7-20.5 20.7-20.5s-20.7 0-20.7 20.5-20.7 0-20.7 0c0-20.5 0-20.5 20.7-20.5v-20.5l-20.7 20.5c-20.7 0-20.7-20.5-20.7-20.5h20.7v-20.5c-41.5 20.5-62.2 20.5-83 20.5-20.7 20.5-20.7 20.5-41.5 41 0 20.5 0 20.5 20.7 41v20.5c-20.7 20.5-20.7 0-20.7 0 0-41-41.5-41-20.7-20.5 0 20.5-20.7 20.5-20.7 20.5 0-20.5 0-41 20.7-41 0-20.5 20.7 0 20.7-20.5s0-41 20.7-61.5h83l20.7-20.5h-20.7-20.7s-20.7-20.5 0-20.5h20.7c-20.7-20.5-41.5-20.5-62.2-20.5-20.7-20.5-20.7-20.5-41.5-41-20.7 0-20.7 0-41.5 20.5h-20.7c-20.7 0-20.7-20.5 0-20.5h20.7c20.7-20.5 0-20.5 0-20.5-20.7 0-20.7-20.5-20.7-20.5 20.7 0 41.5 0 41.5 20.5 0 0 0 20.5 20.7 20.5s20.7 0 62.2 20.5c0 0 20.7 20.5 41.5 20.5v-20.5h-20.7s0-20.5 20.7-20.5c20.7-20.5 0-20.5 0-20.5h-20.7c-20.7 0 0-20.5 0-20.5h41.4-20.7c-20.7 0-20.7-20.5 0-20.5h20.7c20.7 0 20.7 0 20.7-20.5h-20.7c-20.7 0-20.7-20.5 0-20.5H409s20.7 20.5 20.7 0c20.7 0 20.7 0 0-20.5v-20.5h20.7v20.5h41.3L471 324.3c-20.7 0 0-20.5 0-20.5 20.7 0 20.7 20.5 41.5 41h20.8z" fill="#FFFFFF" /><path d="M429.5 570.2H471v20.5h82.8v-20.5h20.7v20.5h20.7v-20.5s20.7 0 20.7-20.5v20.5c-20.7 20.5-41.5 41-83 41v-20.5h-20.7v20.5h-20.7c-20.5 0-41.2-20.5-62-41z m83-41c-41.5-20.5-62.2-41-83-41-20.7 0-20.7 0-20.7 20.5s0 41 41.5 41c20.7 0 41.5-20.5 62.2-20.5z m41.5-20.5c20.7 0 41.5-20.5 83-41v20.5c20.7 20.5 0 41-20.7 41-41.5 20.5-41.5 0-62.2 0-20.8 0-20.8 0-0.1-20.5z m-20.7-163.9v-20.5c-20.7 0 0-20.5 0 0 20.7 0 20.7 0 20.7 20.5v20.5c20.7 0 20.7 0 20.7-20.5v-20.5h20.7v41c20.7 20.5 20.7 20.5 20.7 0s20.7-20.5 20.7 0v41l20.7-20.5c20.7 0 20.7 0 20.7 20.5h-20.7v20.5c0 20.5 0 20.5 20.7 0 0 0 20.7-20.5 41.5-20.5 41.5-20.5 83 0 103.7 0s20.7 0 20.7-20.5c20.7 0 41.5-20.5 62.2-20.5v20.5c-20.7 0-20.7 0-41.5 20.5v20.5c20.7 0 20.7 20.5 0 20.5v-20.5h-41.5c-20.7 0-62.2-20.5-103.7 0-20.7 0-20.7 20.5-41.5 20.5l-20.7 20.5c0 20.5 20.7 20.5 20.7 20.5 0-20.5 0-20.5 20.7-20.5 0 0 20.7 20.5 0 20.5h-20.7v20.5h20.7c20.7 20.5 20.7 20.5 0 20.5h-20.7v20.5c41.5 0 62.2 20.5 83 41h41.5c0 20.5 20.7 20.5 20.7 41h-20.7v-20.5c-20.7 0-20.7 0-20.7 20.5v20.5h-20.7v-20.5-41c-20.7-20.5-41.5-20.5-83-20.5h-20.7 20.7v20.5s-20.7 20.5-20.7 0h-20.7l20.7 20.5c0 20.5 20.7 41 0 61.5 0 20.5-20.7 41-41.5 41-20.7 20.5-20.7 20.5-20.7 41s-20.7 20.5-20.7 20.5c0 20.5-20.7 0-20.7 0l20.7-20.5c0-20.5-20.7-20.5-20.7-20.5s-20.7 0-20.7-20.5c20.7 0 41.5 20.5 62.2 0s41.5-20.5 62.2-41c0-20.5 0-41-20.7-41 0-20.5 0-20.5-20.7-20.5v61.5h-20.7v-20.5c0-20.5 0-20.5-20.7-20.5-20.7 20.5-20.7 20.5 0 20.5 0 20.5 0 20.5-20.7 20.5v-20.5h-20.7c-20.7 0-20.7 0 0 20.5h-20.7L492 652.3h-20.7c0 20.5-20.7 20.5-20.7 0 20.7 0 20.7-20.5 0-20.5h-20.7c0 20.5-20.7 20.5-41.5 41v20.5c20.7 20.5 41.5 20.5 62.2 41h20.7c0-20.5 20.7-20.5 20.7-20.5 20.7 0 20.7 20.5 0 20.5s-20.7 20.5-20.7 20.5c20.7 0 20.7 20.5 0 20.5h-20.7c0-20.5 0-20.5-20.7-20.5-20.7-20.5-41.5-41-62.2-61.5 0-20.5 0-41 20.7-41 0-20.5 20.7-20.5 20.7-20.5 20.7 0 20.7-20.5 20.7-20.5s-20.7 0-20.7 20.5-20.7 0-20.7 0c0-20.5 0-20.5 20.7-20.5v-20.5l-20.7 20.5c-20.7 0-20.7-20.5-20.7-20.5h20.7v-20.5c-41.5 20.5-62.2 20.5-83 20.5-20.7 20.5-20.7 20.5-41.5 41 0 20.5 0 20.5 20.7 41v20.5c-20.7 20.5-20.7 0-20.7 0 0-41-41.5-41-20.7-20.5 0 20.5-20.7 20.5-20.7 20.5 0-20.5 0-41 20.7-41 0-20.5 20.7 0 20.7-20.5s0-41 20.7-61.5h83l20.7-20.5h-20.7-20.7s-20.7-20.5 0-20.5h20.7c-20.7-20.5-41.5-20.5-62.2-20.5-20.7-20.5-20.7-20.5-41.5-41-20.7 0-20.7 0-41.5 20.5h-20.7c-20.7 0-20.7-20.5 0-20.5h20.7c20.7-20.5 0-20.5 0-20.5-20.7 0-20.7-20.5-20.7-20.5 20.7 0 41.5 0 41.5 20.5 0 0 0 20.5 20.7 20.5s20.7 0 62.2 20.5c0 0 20.7 20.5 41.5 20.5v-20.5h-20.7s0-20.5 20.7-20.5c20.7-20.5 0-20.5 0-20.5h-20.7c-20.7 0 0-20.5 0-20.5h41.4-20.7c-20.7 0-20.7-20.5 0-20.5h20.7c20.7 0 20.7 0 20.7-20.5h-20.7c-20.7 0-20.7-20.5 0-20.5H409s20.7 20.5 20.7 0c20.7 0 20.7 0 0-20.5v-20.5h20.7v20.5h41.3L471 324.3c-20.7 0 0-20.5 0-20.5 20.7 0 20.7 20.5 41.5 41h20.8z" fill="#FFFFFF" /><path d="M429.5 570.2H471v20.5h82.8v-20.5h20.7v20.5h20.7v-20.5s20.7 0 20.7-20.5v20.5c-20.7 20.5-41.5 41-83 41v-20.5h-20.7v20.5h-20.7c-20.5 0-41.2-20.5-62-41z m83-41c-41.5-20.5-62.2-41-83-41-20.7 0-20.7 0-20.7 20.5s0 41 41.5 41c20.7 0 41.5-20.5 62.2-20.5z m41.5-20.5c20.7 0 41.5-20.5 83-41v20.5c20.7 20.5 0 41-20.7 41-41.5 20.5-41.5 0-62.2 0-20.8 0-20.8 0-0.1-20.5z m-20.7-163.9v-20.5c-20.7 0 0-20.5 0 0 20.7 0 20.7 0 20.7 20.5v20.5c20.7 0 20.7 0 20.7-20.5v-20.5h20.7v41c20.7 20.5 20.7 20.5 20.7 0s20.7-20.5 20.7 0v41l20.7-20.5c20.7 0 20.7 0 20.7 20.5h-20.7v20.5c0 20.5 0 20.5 20.7 0 0 0 20.7-20.5 41.5-20.5 41.5-20.5 83 0 103.7 0s20.7 0 20.7-20.5c20.7 0 41.5-20.5 62.2-20.5v20.5c-20.7 0-20.7 0-41.5 20.5v20.5c20.7 0 20.7 20.5 0 20.5v-20.5h-41.5c-20.7 0-62.2-20.5-103.7 0-20.7 0-20.7 20.5-41.5 20.5l-20.7 20.5c0 20.5 20.7 20.5 20.7 20.5 0-20.5 0-20.5 20.7-20.5 0 0 20.7 20.5 0 20.5h-20.7v20.5h20.7c20.7 20.5 20.7 20.5 0 20.5h-20.7v20.5c41.5 0 62.2 20.5 83 41h41.5c0 20.5 20.7 20.5 20.7 41h-20.7v-20.5c-20.7 0-20.7 0-20.7 20.5v20.5h-20.7v-20.5-41c-20.7-20.5-41.5-20.5-83-20.5h-20.7 20.7v20.5s-20.7 20.5-20.7 0h-20.7l20.7 20.5c0 20.5 20.7 41 0 61.5 0 20.5-20.7 41-41.5 41-20.7 20.5-20.7 20.5-20.7 41s-20.7 20.5-20.7 20.5c0 20.5-20.7 0-20.7 0l20.7-20.5c0-20.5-20.7-20.5-20.7-20.5s-20.7 0-20.7-20.5c20.7 0 41.5 20.5 62.2 0s41.5-20.5 62.2-41c0-20.5 0-41-20.7-41 0-20.5-0.3 5.5-21 5.5 0 20.5 0.3-5.5 0.3-5.5v41h-20.7v-20.5c0-20.5 0-20.5-20.7-20.5-20.7 20.5-20.7 20.5 0 20.5 0 20.5 0 20.5-20.7 20.5v-20.5h-20.7c-20.7 0-20.7 0 0 20.5h-20.7L492 652.3h-20.7c0 20.5-20.7 20.5-20.7 0 20.7 0 20.7-20.5 0-20.5h-20.7c0 20.5-20.7 20.5-41.5 41v20.5c20.7 20.5 41.5 20.5 62.2 41h20.7c0-20.5 20.7-20.5 20.7-20.5 20.7 0 20.7 20.5 0 20.5s-20.7 20.5-20.7 20.5c20.7 0 20.7 20.5 0 20.5h-20.7c0-20.5 0-20.5-20.7-20.5-20.7-20.5-41.5-41-62.2-61.5 0-20.5 0-41 20.7-41 0-20.5 20.7-20.5 20.7-20.5 20.7 0 20.7-20.5 20.7-20.5s-20.7 0-20.7 20.5-20.7 0-20.7 0c0-20.5 0-20.5 20.7-20.5v-20.5l-20.7 20.5c-20.7 0-20.7-20.5-20.7-20.5h20.7v-20.5c-41.5 20.5-62.2 20.5-83 20.5-20.7 20.5-20.7 20.5-41.5 41 0 20.5 0 20.5 20.7 41v20.5c-20.7 20.5-20.7 0-20.7 0 0-41-41.5-41-20.7-20.5 0 20.5-20.7 20.5-20.7 20.5 0-20.5 0-41 20.7-41 0-20.5 20.7 0 20.7-20.5s0-41 20.7-61.5h83l20.7-20.5h-20.7-20.7s-20.7-20.5 0-20.5h20.7c-20.7-20.5-41.5-20.5-62.2-20.5-20.7-20.5-20.7-20.5-41.5-41-20.7 0-20.7 0-41.5 20.5h-20.7c-20.7 0-20.7-20.5 0-20.5h20.7c20.7-20.5 0-20.5 0-20.5-20.7 0-20.7-20.5-20.7-20.5 20.7 0 41.5 0 41.5 20.5 0 0 0 20.5 20.7 20.5s20.7 0 62.2 20.5c0 0 20.7 20.5 41.5 20.5v-20.5h-20.7s0-20.5 20.7-20.5c20.7-20.5 0-20.5 0-20.5h-20.7c-20.7 0 0-20.5 0-20.5h41.4-20.7c-20.7 0-20.7-20.5 0-20.5h20.7c20.7 0 20.7 0 20.7-20.5h-20.7c-20.7 0-20.7-20.5 0-20.5H409s20.7 20.5 20.7 0c20.7 0 20.7 0 0-20.5v-20.5h20.7v20.5h41.3L471 324.3c-20.7 0 0-20.5 0-20.5 20.7 0 20.7 20.5 41.5 41h20.8z" fill="#FFFFFF" /><path d="M637 467.7s-72.8 44-83 41l-12.5 12s-9 9 7.2 8 25.5 5.5 29.5 8.2 29.8-3.1 38-7.8c0 0 46.7-8 20.7-41v-20.4z" fill="#D95843" /><path d="M637 467.7s-72.8 44-83 41l-12.5 12s-9 9 7.2 8 25.5 5.5 29.5 8.2 29.8-3.1 38-7.8c0 0 46.7-8 20.7-41v-20.4zM429.5 570.2H471v20.5H553.8v-20.5h20.7v20.5h20.7v-20.5s20.3 0 20.7-20.5l-0.4 20.5s-6 40.5-82.6 41l-0.4-18H512l0.2 18s-26.5 2-42-7-25.2-19-40.7-34z" fill="#D95843" /></svg>