<?xml version="1.0" standalone="no"?><!DOCTYPE svg PUBLIC "-//W3C//DTD SVG 1.1//EN" "http://www.w3.org/Graphics/SVG/1.1/DTD/svg11.dtd"><svg class="icon" width="64px" height="64.00px" viewBox="0 0 1024 1024" version="1.1" xmlns="http://www.w3.org/2000/svg"><path d="M509.4 509.6m-445 0a445 445 0 1 0 890 0 445 445 0 1 0-890 0Z" fill="#184F78" /><path d="M829.1 322.3l-104.4 84.3-104.4-84.3-229.8 105.4-125.3-105.4-83.6 105.4 146.2 147.6-146.2 63.2 41.8 42.2h-20.9l270 272.5c12.2 1 24.5 1.5 36.9 1.5 245.8 0 445-199.2 445-445 0-22.3-1.7-44.3-4.8-65.8-9.5-9.6-37.5-37.9-120.5-121.6z" fill="#103754" /><path d="M694.8 552.2c0 21.3 20.7 21.3 41.5 21.3 0 0 20.7 21.3 41.5 0h20.7c62.2 0 62.2 63.9 20.7 85.2C840 701.3 757 743.8 757 680c-20.7-42.6-41.5-42.6-41.5-42.6-20.7-21.3-41.5-21.3-83-42.6 20.7 0 41.5-21.3 41.5-21.3 0-21.3 20.8-21.3 20.8-21.3zM674 381.9h41.5c0-21.3 20.7-21.3 41.5-42.6 0-63.9 83-42.6 62.2 0v21.3c41.5 21.3 41.5 85.2-20.7 85.2l-20.7-21.3h-41.5s-20.7 21.3-41.5 21.3H674v-42.6-21.3z m-352.6 63.8h-20.7c-20.7-21.3-41.5-21.3-62.2 0-62.2 21.3-103.7-63.9-41.5-85.2-20.7-63.9 62.2-85.2 83-21.3 0 21.3 20.7 42.6 41.5 42.6l20.7 21.3v42.6s-20.8 21.3-20.8 0z m311.1 42.6c0 63.9-103.7 63.9-103.7 0s103.7-63.8 103.7 0z m-145.2 0c0 63.9-103.7 63.9-103.7 0s103.7-63.8 103.7 0zM549.6 680h-20.7v-21.3h-20.7V680h-20.7v-21.3h-20.7V680h-20.7v-21.3h-20.7V680c0 42.6 0 42.6 83 42.6s83-21.3 83-42.6v-21.3h-20.7V680h-21.1z m82.9-106.5c-20.7 0-41.5 21.3-41.5 42.6v42.6h-20.7v-21.3-21.3h-20.7-20.7v42.6h-20.7v-21.3-21.3h-20.7v42.6h-20.7v-21.3-21.3h-20.7v42.6h-20.7v-42.6c0-21.3 0-42.6-41.5-42.6-20.7 0-41.5-21.3-41.5-42.6 0-170.3 41.5-255.5 166-255.5s166 85.2 166 255.5c-0.4 21.3-21.1 42.6-41.9 42.6z m-435.6 85.2v-21.3c-62.2-21.3-20.7-106.5 41.5-63.9h62.2c0-21.3 0-21.3 20.7-21.3H342c0 21.3 0 21.3 20.7 42.6-20.7 21.3-41.5 21.3-41.5 21.3-20.7 21.3-41.5 21.3-41.5 42.6-20.6 63.8-103.5 42.6-82.8 0z" fill="#EE6829" /><path d="M385 487a52 49 0 1 0 104 0 52 49 0 1 0-104 0Z" fill="#103754" /><path d="M522 487a52 49 0 1 0 104 0 52 49 0 1 0-104 0Z" fill="#103754" /></svg>