<?xml version="1.0" standalone="no"?><!DOCTYPE svg PUBLIC "-//W3C//DTD SVG 1.1//EN" "http://www.w3.org/Graphics/SVG/1.1/DTD/svg11.dtd"><svg class="icon" width="64px" height="64.00px" viewBox="0 0 1024 1024" version="1.1" xmlns="http://www.w3.org/2000/svg"><path d="M515 509m-445 0a445 445 0 1 0 890 0 445 445 0 1 0-890 0Z" fill="#184F78" /><path d="M770.4 418.6l-62.8 20.8v20.8L603 356.2l-104.6-104-41.8 20.8v104H331.1l20.9 20.8-20.9 20.8H352l-20.9 20.8 125.5 124.8v62.4L352 522.6l-62.8-62.4-41.8 20.8v20.8l-20.9 62.4-41.8 20.8 104.6 83.2-20.9 41.6h20.9l-62.8 41.6 217.8 197c23 3.7 46.6 5.6 70.7 5.6 214.7 0 393.9-152.1 435.8-354.3-0.3-0.4-14.9-16.5-180.4-181.1z" fill="#103754" /><path d="M781.9 748.7c-21.3-62.8-85.4-62.8-128.1-62.8v62.8h128.1z m-427 0v-41.8c-42.7 0-85.4 0-128.1 41.8h128.1zM419 246.6h85.4v20.9L483 288.4h21.3v20.9H483h21.3v20.9c0 20.9 21.3 20.9 21.3 20.9H611v62.8l-85.4 20.9s-21.3 0-21.3 20.9l21.3 167.4V644h-64v-20.9l-21.3-125.5 21.3-20.9h-21.3v-20.9c0-20.9-21.3-20.9-21.3-20.9h-85.4V414h21.3-21.3v-21h42.7v-20.9c0 20.9-42.7 20.9-42.7 20.9v-20.9H419v-20.9c21.3 0 21.3 0 21.3-20.9L419 246.6zM717.8 393l42.7 20.9h21.3-21.3v20.9c-21.3 0-21.3 0 0 0v41.8h21.3v20.9h64l-21.3 41.8h-64v20.9l-21.3 125.5h-64V665l21.3-83.7c21.3 0 21.3 0 0 0v-20.9-20.9h-21.3l-42.7-20.9v-20.9h21.3-21.3v-20.9h21.3-21.3 64c0-20.9 21.3-20.9 21.3-20.9V393z m-426.9 62.8h-42.7V518.5c0 20.9-21.3 20.9-21.3 20.9h-42.7v41.8h64l21.3 125.5c21.3-20.9 21.3-20.9 42.7-20.9v-83.7h-21.3 21.3l-21.3-20.9h21.3v-20.9h42.7v-20.9h-21.3 21.3-21.3l21.3-20.9h-42.7-21.3v-62.7z m341.6 292.9c21.3-41.8-21.3-104.6-64-104.6H440.4c-42.7 0-85.4 62.8-85.4 104.6h277.5z" fill="#C2D44C" /></svg>