<?xml version="1.0" standalone="no"?><!DOCTYPE svg PUBLIC "-//W3C//DTD SVG 1.1//EN" "http://www.w3.org/Graphics/SVG/1.1/DTD/svg11.dtd"><svg class="icon" width="64px" height="64.00px" viewBox="0 0 1024 1024" version="1.1" xmlns="http://www.w3.org/2000/svg"><path d="M512 64a448 448 0 1 1 0 896A448 448 0 0 1 512 64z m0 89.6a358.4 358.4 0 1 0 0 716.8A358.4 358.4 0 0 0 512 153.6zM512 576c79.36 0 153.92 20.672 218.624 56.896l-44.288 77.888A356.8 356.8 0 0 0 512 665.6c-63.808 0-123.648 16.64-175.552 45.888l-43.52-78.4A445.952 445.952 0 0 1 512 576zM384 320a64 64 0 1 1 0 128 64 64 0 0 1 0-128z m256 0a64 64 0 1 1 0 128 64 64 0 0 1 0-128z" fill="#ffffff" /></svg>