<?xml version="1.0" standalone="no"?><!DOCTYPE svg PUBLIC "-//W3C//DTD SVG 1.1//EN" "http://www.w3.org/Graphics/SVG/1.1/DTD/svg11.dtd"><svg class="icon" width="48px" height="48.00px" viewBox="0 0 1024 1024" version="1.1" xmlns="http://www.w3.org/2000/svg"><path d="M506.656 1.056c-151.68 0-276.864 123.424-276.864 275.104v471.648c0 151.712 125.184 275.136 276.864 275.136 151.712 0 276.896-123.424 276.896-275.136V276.16C783.52 124.48 658.336 1.056 506.656 1.056zM310.528 286.016c0-124.992 80.48-179.136 122.912-190.336a39.456 39.456 0 0 1 48.16 28c5.472 20.832-5.952 42.144-26.624 47.904-7.008 2.08-63.68 22.304-63.68 114.432v147.392c0 21.696-18.656 39.296-40.384 39.296-21.664 0-40.384-17.6-40.384-39.296V286.016z m392.224 461.792c0 108.352-87.776 196.512-196.128 196.512-108.32 0-196.128-88.16-196.128-196.512v-165.344c0-31.104 25.216-56.288 56.288-56.288h279.648c31.104 0 56.32 25.216 56.32 56.288v165.344z" fill="#ffffff" /></svg>