<?xml version="1.0" standalone="no"?><!DOCTYPE svg PUBLIC "-//W3C//DTD SVG 1.1//EN" "http://www.w3.org/Graphics/SVG/1.1/DTD/svg11.dtd"><svg class="icon" width="48px" height="48.00px" viewBox="0 0 1024 1024" version="1.1" xmlns="http://www.w3.org/2000/svg"><path d="M 423.64 785.23 c 1.99 -13.79 3.91 -27.61 5.76 -41.47 c 0.14 -1.29 0.78 -1.99 1.92 -2.13 c 5.05 -0.22 9.74 0.17 14.07 1.17 l 1.49 0.64 c 1.07 0.49 1.75 1.28 2.02 2.35 c 1.28 6.18 1.03 12.47 -0.75 18.87 c -1.57 5.97 -5.4 11.23 -11.51 15.78 c -4.41 2.92 -8.22 4.83 -11.41 5.76 c -1.2 0.42 -1.73 0.1 -1.59 -0.97 Z" fill="#ffffff" /><path d="M 464.37 740.78 c 1.85 8.31 1.29 16.95 -1.7 25.9 c -3.35 9.17 -9.56 16.42 -18.66 21.75 c -8.17 4.34 -16.92 6.25 -26.23 5.76 c -1.64 -0.14 -2.95 -0.67 -3.94 -1.6 c -1.07 -0.99 -1.49 -1.99 -1.28 -2.98 c 0.92 -1.57 2.13 -1.75 3.63 -0.54 c 1.77 1.21 3.76 1.46 5.97 0.75 c 5.83 -1.7 11.12 -4.16 15.89 -7.35 c 6.04 -4.34 10.09 -9.7 12.15 -16.1 c 1.93 -5.83 2.46 -11.98 1.6 -18.45 c -0.35 -3.13 -1.24 -5.83 -2.66 -8.11 c -1.21 -1.63 -2.56 -2.88 -4.05 -3.73 c -2.92 -1.84 -5.54 -3.01 -7.89 -3.52 c -4.63 -0.92 -9.6 -1.21 -14.93 -0.85 c -1.49 0.21 -2.35 0.95 -2.56 2.24 c -2.13 16.7 -4.37 33.12 -6.72 49.25 c -0.57 3.77 -1.17 6.43 -1.81 7.99 c -1.49 3.7 -3.73 5.26 -6.72 4.7 c -3.34 -0.71 -5.12 -2.77 -5.33 -6.18 c -0.5 -5.41 -0.22 -13.33 0.85 -23.78 c 1.13 -10.73 2.3 -21.42 3.52 -32.09 c 0.13 -1.29 -0.54 -2.02 -2.03 -2.24 c -1.56 -0.29 -3.19 -0.75 -4.9 -1.39 c -3.48 -0.93 -5.69 -2.88 -6.6 -5.87 c -0.85 -2.7 0.39 -4.98 3.73 -6.82 c 3.13 -1.71 6.4 -2.56 9.82 -2.56 c 9.94 0.07 18.94 0.47 26.97 1.18 c 5.48 0.42 10.77 1.59 15.89 3.52 c 2.2 0.99 4.83 2.84 7.89 5.54 c 5.59 5.06 8.96 10.24 10.1 15.58 Z" fill="#ffffff" /><path d="M 474.82 750.91 c -0.04 -0.25 -0.07 -0.5 -0.12 -0.76 c -0.27 1.26 -0.48 2.5 -0.63 3.73 c -0.67 5.6 -0.68 10.83 -0.05 15.69 c 1.39 -5.94 1.66 -12.17 0.8 -18.66 Z m 64.71 -15.04 c -0.29 -1.07 -1.11 -1.85 -2.46 -2.35 c -11.65 -2.13 -21.57 3.48 -29.75 16.84 c -5.47 9.74 -7.68 19.23 -6.6 28.47 c 0.28 1.06 1.06 1.77 2.35 2.13 c 7.32 1.21 14.07 -0.57 20.25 -5.34 c 4.26 -3.41 7.64 -7.46 10.13 -12.15 c 3.69 -6.76 5.79 -13.47 6.29 -20.16 c 0.22 -3.6 0.14 -6.09 -0.21 -7.44 Z m 0 0 c -0.29 -1.07 -1.11 -1.85 -2.46 -2.35 c -11.65 -2.13 -21.57 3.48 -29.75 16.84 c -5.47 9.74 -7.68 19.23 -6.6 28.47 c 0.28 1.06 1.06 1.77 2.35 2.13 c 7.32 1.21 14.07 -0.57 20.25 -5.34 c 4.26 -3.41 7.64 -7.46 10.13 -12.15 c 3.69 -6.76 5.79 -13.47 6.29 -20.16 c 0.22 -3.6 0.14 -6.09 -0.21 -7.44 Z m 9.81 -3.73 c -1.06 -2.48 -2.63 -4.98 -4.69 -7.46 c -2.35 -2.56 -5.05 -4.45 -8.11 -5.65 c -5.4 -2.06 -11.16 -2.56 -17.27 -1.49 c -1.36 0.28 -2.24 -0.22 -2.67 -1.49 c -0.78 -1.57 -1.95 -2.59 -3.52 -3.1 c -5.97 -0.78 -12.47 1.82 -19.51 7.78 c -2.84 2.71 -5.3 5.61 -7.36 8.75 c -9.24 14.14 -12.22 28.82 -8.95 44.04 c 0.49 2.56 1.42 5.25 2.77 8.1 c 3.55 6.76 8.46 11.09 14.71 13.01 c 10.17 2.83 20.94 0.85 32.31 -5.97 c 5.82 -3.48 11.05 -8.53 15.67 -15.13 c 8.9 -14.67 11.1 -28.45 6.62 -41.39 Z m -14.71 34.23 c -8.6 13.43 -19.37 19.12 -32.3 17.06 c -1.42 -0.36 -2.74 -0.82 -3.95 -1.39 c -3.19 -1.48 -5.36 -3.76 -6.51 -6.82 c -1.06 -2.84 -1.48 -6 -1.28 -9.48 c 0.22 -9.82 3.59 -19.3 10.13 -28.47 c 4.83 -6.54 9.84 -10.7 15.04 -12.47 c 4.97 -2 10.12 -2.28 15.46 -0.85 c 6.6 2.56 10.27 6.96 10.98 13.22 c 0.78 9.51 -1.75 19.24 -7.57 29.2 Z m 2.45 -32.85 c -11.65 -2.13 -21.57 3.48 -29.75 16.84 c -5.47 9.74 -7.68 19.23 -6.6 28.47 c 0.28 1.06 1.06 1.77 2.35 2.13 c 7.32 1.21 14.07 -0.57 20.25 -5.34 c 4.26 -3.41 7.64 -7.46 10.13 -12.15 c 3.69 -6.76 5.79 -13.47 6.29 -20.16 c 0.21 -3.63 0.13 -6.11 -0.22 -7.46 c -0.28 -1.05 -1.1 -1.83 -2.45 -2.33 Z m 12.26 -1.38 c -1.06 -2.48 -2.63 -4.98 -4.69 -7.46 c -2.35 -2.56 -5.05 -4.45 -8.11 -5.65 c -5.4 -2.06 -11.16 -2.56 -17.27 -1.49 c -1.36 0.28 -2.24 -0.22 -2.67 -1.49 c -0.78 -1.57 -1.95 -2.59 -3.52 -3.1 c -5.97 -0.78 -12.47 1.82 -19.51 7.78 c -2.84 2.71 -5.3 5.61 -7.36 8.75 c -9.24 14.14 -12.22 28.82 -8.95 44.04 c 0.49 2.56 1.42 5.25 2.77 8.1 c 3.55 6.76 8.46 11.09 14.71 13.01 c 10.17 2.83 20.94 0.85 32.31 -5.97 c 5.82 -3.48 11.05 -8.53 15.67 -15.13 c 8.9 -14.67 11.1 -28.45 6.62 -41.39 Z m -14.71 34.23 c -8.6 13.43 -19.37 19.12 -32.3 17.06 c -1.42 -0.36 -2.74 -0.82 -3.95 -1.39 c -3.19 -1.48 -5.36 -3.76 -6.51 -6.82 c -1.06 -2.84 -1.48 -6 -1.28 -9.48 c 0.22 -9.82 3.59 -19.3 10.13 -28.47 c 4.83 -6.54 9.84 -10.7 15.04 -12.47 c 4.97 -2 10.12 -2.28 15.46 -0.85 c 6.6 2.56 10.27 6.96 10.98 13.22 c 0.78 9.51 -1.75 19.24 -7.57 29.2 Z m 2.45 -32.85 c -11.65 -2.13 -21.57 3.48 -29.75 16.84 c -5.47 9.74 -7.68 19.23 -6.6 28.47 c 0.28 1.06 1.06 1.77 2.35 2.13 c 7.32 1.21 14.07 -0.57 20.25 -5.34 c 4.26 -3.41 7.64 -7.46 10.13 -12.15 c 3.69 -6.76 5.79 -13.47 6.29 -20.16 c 0.21 -3.63 0.13 -6.11 -0.22 -7.46 c -0.28 -1.05 -1.1 -1.83 -2.45 -2.33 Z m -62.38 16.63 c -0.27 1.26 -0.48 2.5 -0.63 3.73 c -0.67 5.6 -0.68 10.83 -0.05 15.69 c 1.39 -5.95 1.66 -12.17 0.8 -18.67 c -0.03 -0.24 -0.07 -0.5 -0.12 -0.75 Z m 221.53 -17.59 c -83.51 -55.41 -107.65 -151.98 -107.65 -151.98 c -11.09 -55.01 -50.67 -63.32 -50.67 -63.32 c -80.34 -17.42 -97.36 53.43 -97.36 53.43 c -34.83 109.23 -82.73 139.71 -82.73 139.71 c -26.91 17.81 -64.11 55.41 -64.11 55.41 c -64.12 74.81 22.16 133.77 22.16 133.77 c 38.79 29.68 83.51 2.38 83.51 2.38 l 64.12 -36.41 c 65.7 -34.04 128.62 16.62 128.62 16.62 c 17.82 13.46 55.8 28.1 55.8 28.1 c 59.37 20.58 98.55 -50.66 98.55 -50.66 c 36.04 -76.78 -50.24 -127.05 -50.24 -127.05 Z m -51.89 39.46 c -1 0.99 -2.31 1.77 -3.95 2.34 l -3.94 1.28 c -0.85 0.36 -1.46 0.75 -1.82 1.18 c -0.71 1 -1.31 2.34 -1.81 4.05 c -1.49 3.99 -2.56 8 -3.2 12.05 c -0.14 1.07 0.07 1.88 0.64 2.46 c 1.14 0.85 1.64 1.84 1.49 2.98 c -0.57 3.35 -2.56 5.72 -5.97 7.14 c -2.64 1.35 -5.37 0.6 -8.21 -2.24 c -1.06 -1.06 -2.28 -1.42 -3.62 -1.06 c -9.74 2.84 -18.27 2.7 -25.59 -0.43 c -3.06 -1.21 -6.36 -3.27 -9.92 -6.18 c -3.41 -3.41 -6.87 -6.89 -10.35 -10.45 c -2.84 -3.41 -4.9 -6.75 -6.18 -10.02 a 53.184 53.184 0 0 1 -2.44 -8.77 c -0.94 3.19 -2.24 6.54 -3.85 10.05 c -4.76 9.67 -11.98 17.31 -21.64 22.93 c -8.31 4.62 -16.42 6.86 -24.31 6.71 c -6.6 -0.14 -12.58 -2.48 -17.91 -7.04 l -9.07 -9.17 c -4.05 -4.54 -6.71 -9.94 -7.99 -16.21 a 50.5 50.5 0 0 1 -0.69 -4.03 c -0.67 2.91 -1.62 5.74 -2.83 8.51 c -6.33 12.65 -15.85 20.72 -28.58 24.2 c -6.18 1.77 -12.4 2.38 -18.65 1.81 c -0.93 -0.22 -1.85 -0.49 -2.78 -0.85 c -0.99 -0.78 -1.95 -0.64 -2.87 0.43 c -1.57 1.63 -3.2 2.45 -4.91 2.45 c -2.12 0.07 -4.12 -0.53 -5.97 -1.81 a 502.65 502.65 0 0 1 -8.64 -8.64 c -1.49 -1.99 -2.28 -4.58 -2.35 -7.78 c -0.14 -4.9 0.18 -11.76 0.96 -20.58 c 0.85 -8.88 1.82 -17.76 2.88 -26.65 c 0.07 -1.13 -0.49 -2.1 -1.7 -2.88 l -1.07 -0.75 l -8.21 -8.31 c -1.93 -2.48 -2.42 -5.36 -1.49 -8.64 c 0.64 -1.42 1.66 -2.66 3.09 -3.73 c 4.48 -3.19 10.24 -4.44 17.28 -3.73 c 8.24 0.07 15.04 0.35 20.36 0.85 c 6.18 0.5 11.48 1.46 15.89 2.88 c 3.69 1.07 7.5 3.38 11.4 6.94 c 3.84 3.69 7.64 7.53 11.41 11.51 c 4.08 4.69 6.57 9.81 7.46 15.35 c 0.84 -3.98 2.22 -8.1 4.17 -12.36 c 6.11 -13.78 14.86 -22.64 26.23 -26.54 c 1.42 -0.43 2.81 -0.71 4.16 -0.85 c 3.19 -0.71 6.07 0.29 8.64 2.99 c 1.06 1.06 2.27 1.49 3.62 1.28 c 5.61 -0.49 10.95 0.22 16 2.13 c 2.41 0.85 4.8 2.31 7.14 4.37 l 9.38 9.48 c 2.28 2.7 3.95 5.41 5.01 8.11 c 0.4 1.1 0.75 2.2 1.04 3.3 c 0.11 -0.43 0.22 -0.85 0.34 -1.28 c 1.64 -5.34 4.62 -10.7 8.96 -16.1 c 4.76 -5.69 10.27 -9.53 16.52 -11.52 c 2.7 -0.78 5.34 -1.35 7.89 -1.71 c 7.75 -0.85 15.31 -0.17 22.71 2.02 c 3.76 1.07 7.71 3.02 11.83 5.87 c 0.64 0.43 1.35 1 2.13 1.71 c 3.13 3.13 6.22 6.33 9.28 9.59 c 2.99 3.77 3.55 7.71 1.71 11.83 c -0.64 1.43 -1.75 2.67 -3.31 3.73 c -2.84 1.49 -5.93 1.57 -9.28 0.22 c -1.7 -0.64 -4.36 -1.84 -7.99 -3.63 c -5.54 -2.77 -11.55 -3.73 -18.02 -2.88 c -3.63 0.57 -7.11 2.74 -10.45 6.51 c -0.85 1.06 -0.6 1.67 0.75 1.81 l 15.78 1.71 c 5.97 0.57 11.44 0.71 16.41 0.42 c 2.42 -0.21 4.3 -0.17 5.65 0.11 c 2.56 0.43 4.52 1.24 5.87 2.46 l 8.31 8.42 c 2.64 3.75 2.36 7.3 -0.83 10.65 Z m -79.65 3.3 c 3.99 8.31 10.1 14 18.34 17.06 c 7.68 2.63 16.13 2.34 25.37 -0.85 c 1.35 -0.49 2.31 -0.07 2.88 1.28 c 2.06 3.34 4.52 4.08 7.36 2.24 c 1.7 -1.06 2.74 -2.28 3.1 -3.63 c 0.28 -0.85 -0.25 -1.53 -1.6 -2.02 c -0.58 -0.78 -0.78 -1.6 -0.64 -2.45 c 0.64 -4.98 2.02 -10.38 4.16 -16.21 c 0.49 -1.21 1.03 -2.2 1.6 -2.98 c 0.64 -0.85 1.21 -1.35 1.7 -1.49 l 5.97 -2.13 c 3.48 -1.71 4.76 -4.08 3.83 -7.14 c -0.85 -1.77 -1.99 -2.92 -3.41 -3.41 c -1.92 -0.85 -4.9 -1.07 -8.95 -0.64 c -7.54 0.35 -17.7 -0.36 -30.49 -2.13 c -2.06 -0.57 -4.01 -0.32 -5.87 0.75 c -2.56 1.77 -3.09 3.87 -1.6 6.29 c 0.93 1.35 2.17 2.41 3.73 3.19 c 4.27 2.49 10.52 4.44 18.77 5.87 c 1.56 0.22 2.27 0.93 2.13 2.13 c -0.43 4.05 -0.93 8.06 -1.49 12.05 c -0.22 1.35 -0.96 2.45 -2.24 3.3 c -3.34 1.21 -7.11 1.57 -11.3 1.07 c -5.97 -0.43 -11.19 -3.2 -15.67 -8.32 c -1.77 -2.06 -3.17 -4.72 -4.16 -7.99 c -2.06 -8.03 -1.24 -16.31 2.45 -24.84 c 3.77 -7.68 8.82 -12.37 15.14 -14.07 c 6.25 -1.13 12.23 -0.6 17.91 1.6 c 3.69 1.63 6.36 2.84 7.99 3.62 c 2.92 1.64 5.51 2.24 7.78 1.82 c 1.42 -0.14 2.67 -0.96 3.73 -2.46 c 2.56 -4.05 1.75 -8.06 -2.45 -12.05 c -5.83 -4.54 -12.44 -7.39 -19.83 -8.53 c -9.95 -1.63 -18.91 -0.57 -26.87 3.2 c -3.28 1.57 -6.47 4.05 -9.6 7.46 c -6.65 7.71 -10.37 15.63 -11.16 23.75 c -0.22 -2.21 -0.63 -4.4 -1.23 -6.58 c -1.31 5.13 -1.8 10.75 -1.47 16.84 c 0.12 2.54 0.41 5.01 0.86 7.43 c 0.7 -2.38 1.22 -4.68 1.56 -6.88 a 53.89 53.89 0 0 0 3.67 15.85 Z m 22.6 4.05 c 0.36 0.71 0.85 1.21 1.49 1.49 c 5.26 2.42 10.81 2.95 16.64 1.6 c 1.06 -0.49 1.66 -1.39 1.81 -2.66 l 0.42 -3.1 c 0.14 -1.07 -0.42 -1.77 -1.7 -2.13 c -2.99 -0.78 -5.43 -1.67 -7.36 -2.66 c -2.99 -1.07 -6.75 -4.23 -11.3 -9.49 c -1.06 -1.06 -1.74 -0.92 -2.02 0.43 c -0.86 6.04 -0.18 11.54 2.02 16.52 Z m -42.64 -54.69 c -2.35 -2.56 -5.05 -4.45 -8.11 -5.65 c -5.4 -2.06 -11.16 -2.56 -17.27 -1.49 c -1.36 0.28 -2.24 -0.22 -2.67 -1.49 c -0.78 -1.57 -1.95 -2.59 -3.52 -3.1 c -5.97 -0.78 -12.47 1.82 -19.51 7.78 c -2.84 2.71 -5.3 5.61 -7.36 8.75 c -9.24 14.14 -12.22 28.82 -8.95 44.04 c 0.49 2.56 1.42 5.25 2.77 8.1 c 3.55 6.76 8.46 11.09 14.71 13.01 c 10.17 2.83 20.94 0.85 32.31 -5.97 c 5.82 -3.48 11.05 -8.53 15.67 -15.13 c 8.89 -14.65 11.09 -28.43 6.61 -41.37 c -1.05 -2.51 -2.62 -5 -4.68 -7.48 Z m -10.02 41.69 c -8.6 13.43 -19.37 19.12 -32.3 17.06 c -1.42 -0.36 -2.74 -0.82 -3.95 -1.39 c -3.19 -1.48 -5.36 -3.76 -6.51 -6.82 c -1.06 -2.84 -1.48 -6 -1.28 -9.48 c 0.22 -9.82 3.59 -19.3 10.13 -28.47 c 4.83 -6.54 9.84 -10.7 15.04 -12.47 c 4.97 -2 10.12 -2.28 15.46 -0.85 c 6.6 2.56 10.27 6.96 10.98 13.22 c 0.78 9.51 -1.75 19.24 -7.57 29.2 Z m 2.45 -32.85 c -11.65 -2.13 -21.57 3.48 -29.75 16.84 c -5.47 9.74 -7.68 19.23 -6.6 28.47 c 0.28 1.06 1.06 1.77 2.35 2.13 c 7.32 1.21 14.07 -0.57 20.25 -5.34 c 4.26 -3.41 7.64 -7.46 10.13 -12.15 c 3.69 -6.76 5.79 -13.47 6.29 -20.16 c 0.21 -3.63 0.13 -6.11 -0.22 -7.46 c -0.28 -1.05 -1.1 -1.83 -2.45 -2.33 Z m -62.26 17.39 c -0.04 -0.25 -0.07 -0.5 -0.12 -0.76 c -0.27 1.26 -0.48 2.5 -0.63 3.73 c -0.67 5.6 -0.68 10.83 -0.05 15.69 c 1.39 -5.94 1.66 -12.17 0.8 -18.66 Z m 0 0 c -0.04 -0.25 -0.07 -0.5 -0.12 -0.76 c -0.27 1.26 -0.48 2.5 -0.63 3.73 c -0.67 5.6 -0.68 10.83 -0.05 15.69 c 1.39 -5.94 1.66 -12.17 0.8 -18.66 Z m 64.71 -15.04 c -0.29 -1.07 -1.11 -1.85 -2.46 -2.35 c -11.65 -2.13 -21.57 3.48 -29.75 16.84 c -5.47 9.74 -7.68 19.23 -6.6 28.47 c 0.28 1.06 1.06 1.77 2.35 2.13 c 7.32 1.21 14.07 -0.57 20.25 -5.34 c 4.26 -3.41 7.64 -7.46 10.13 -12.15 c 3.69 -6.76 5.79 -13.47 6.29 -20.16 c 0.22 -3.6 0.14 -6.09 -0.21 -7.44 Z m 0 0 c -0.29 -1.07 -1.11 -1.85 -2.46 -2.35 c -11.65 -2.13 -21.57 3.48 -29.75 16.84 c -5.47 9.74 -7.68 19.23 -6.6 28.47 c 0.28 1.06 1.06 1.77 2.35 2.13 c 7.32 1.21 14.07 -0.57 20.25 -5.34 c 4.26 -3.41 7.64 -7.46 10.13 -12.15 c 3.69 -6.76 5.79 -13.47 6.29 -20.16 c 0.22 -3.6 0.14 -6.09 -0.21 -7.44 Z m 9.81 -3.73 c -1.06 -2.48 -2.63 -4.98 -4.69 -7.46 c -2.35 -2.56 -5.05 -4.45 -8.11 -5.65 c -5.4 -2.06 -11.16 -2.56 -17.27 -1.49 c -1.36 0.28 -2.24 -0.22 -2.67 -1.49 c -0.78 -1.57 -1.95 -2.59 -3.52 -3.1 c -5.97 -0.78 -12.47 1.82 -19.51 7.78 c -2.84 2.71 -5.3 5.61 -7.36 8.75 c -9.24 14.14 -12.22 28.82 -8.95 44.04 c 0.49 2.56 1.42 5.25 2.77 8.1 c 3.55 6.76 8.46 11.09 14.71 13.01 c 10.17 2.83 20.94 0.85 32.31 -5.97 c 5.82 -3.48 11.05 -8.53 15.67 -15.13 c 8.9 -14.67 11.1 -28.45 6.62 -41.39 Z m -14.71 34.23 c -8.6 13.43 -19.37 19.12 -32.3 17.06 c -1.42 -0.36 -2.74 -0.82 -3.95 -1.39 c -3.19 -1.48 -5.36 -3.76 -6.51 -6.82 c -1.06 -2.84 -1.48 -6 -1.28 -9.48 c 0.22 -9.82 3.59 -19.3 10.13 -28.47 c 4.83 -6.54 9.84 -10.7 15.04 -12.47 c 4.97 -2 10.12 -2.28 15.46 -0.85 c 6.6 2.56 10.27 6.96 10.98 13.22 c 0.78 9.51 -1.75 19.24 -7.57 29.2 Z m 2.45 -32.85 c -11.65 -2.13 -21.57 3.48 -29.75 16.84 c -5.47 9.74 -7.68 19.23 -6.6 28.47 c 0.28 1.06 1.06 1.77 2.35 2.13 c 7.32 1.21 14.07 -0.57 20.25 -5.34 c 4.26 -3.41 7.64 -7.46 10.13 -12.15 c 3.69 -6.76 5.79 -13.47 6.29 -20.16 c 0.21 -3.63 0.13 -6.11 -0.22 -7.46 c -0.28 -1.05 -1.1 -1.83 -2.45 -2.33 Z m 2.45 2.35 c -0.29 -1.07 -1.11 -1.85 -2.46 -2.35 c -11.65 -2.13 -21.57 3.48 -29.75 16.84 c -5.47 9.74 -7.68 19.23 -6.6 28.47 c 0.28 1.06 1.06 1.77 2.35 2.13 c 7.32 1.21 14.07 -0.57 20.25 -5.34 c 4.26 -3.41 7.64 -7.46 10.13 -12.15 c 3.69 -6.76 5.79 -13.47 6.29 -20.16 c 0.22 -3.6 0.14 -6.09 -0.21 -7.44 Z m 0 0 c -0.29 -1.07 -1.11 -1.85 -2.46 -2.35 c -11.65 -2.13 -21.57 3.48 -29.75 16.84 c -5.47 9.74 -7.68 19.23 -6.6 28.47 c 0.28 1.06 1.06 1.77 2.35 2.13 c 7.32 1.21 14.07 -0.57 20.25 -5.34 c 4.26 -3.41 7.64 -7.46 10.13 -12.15 c 3.69 -6.76 5.79 -13.47 6.29 -20.16 c 0.22 -3.6 0.14 -6.09 -0.21 -7.44 Z m 9.81 -3.73 c -1.06 -2.48 -2.63 -4.98 -4.69 -7.46 c -2.35 -2.56 -5.05 -4.45 -8.11 -5.65 c -5.4 -2.06 -11.16 -2.56 -17.27 -1.49 c -1.36 0.28 -2.24 -0.22 -2.67 -1.49 c -0.78 -1.57 -1.95 -2.59 -3.52 -3.1 c -5.97 -0.78 -12.47 1.82 -19.51 7.78 c -2.84 2.71 -5.3 5.61 -7.36 8.75 c -9.24 14.14 -12.22 28.82 -8.95 44.04 c 0.49 2.56 1.42 5.25 2.77 8.1 c 3.55 6.76 8.46 11.09 14.71 13.01 c 10.17 2.83 20.94 0.85 32.31 -5.97 c 5.82 -3.48 11.05 -8.53 15.67 -15.13 c 8.9 -14.67 11.1 -28.45 6.62 -41.39 Z m -14.71 34.23 c -8.6 13.43 -19.37 19.12 -32.3 17.06 c -1.42 -0.36 -2.74 -0.82 -3.95 -1.39 c -3.19 -1.48 -5.36 -3.76 -6.51 -6.82 c -1.06 -2.84 -1.48 -6 -1.28 -9.48 c 0.22 -9.82 3.59 -19.3 10.13 -28.47 c 4.83 -6.54 9.84 -10.7 15.04 -12.47 c 4.97 -2 10.12 -2.28 15.46 -0.85 c 6.6 2.56 10.27 6.96 10.98 13.22 c 0.78 9.51 -1.75 19.24 -7.57 29.2 Z m 2.45 -32.85 c -11.65 -2.13 -21.57 3.48 -29.75 16.84 c -5.47 9.74 -7.68 19.23 -6.6 28.47 c 0.28 1.06 1.06 1.77 2.35 2.13 c 7.32 1.21 14.07 -0.57 20.25 -5.34 c 4.26 -3.41 7.64 -7.46 10.13 -12.15 c 3.69 -6.76 5.79 -13.47 6.29 -20.16 c 0.21 -3.63 0.13 -6.11 -0.22 -7.46 c -0.28 -1.05 -1.1 -1.83 -2.45 -2.33 Z m -62.26 17.39 c -0.04 -0.25 -0.07 -0.5 -0.12 -0.76 c -0.27 1.26 -0.48 2.5 -0.63 3.73 c -0.67 5.6 -0.68 10.83 -0.05 15.69 c 1.39 -5.94 1.66 -12.17 0.8 -18.66 Z M 170.5 487.05 s 24.27 -51.72 74.93 -23.75 c 0 0 55.41 31.4 79.55 101.06 c 0 0 32.85 96.57 -60.95 103.7 c 0 0 -64.91 5.54 -98.95 -95.78 c 0.01 -0.01 -13.32 -51.72 5.42 -85.23 Z M 340.42 248.52 s 25.33 -70.85 70.85 -29.68 c 0 0 71.76 72.82 81.4 167.42 c 0 0 12.01 78.36 -65.17 100.92 c 0 0 -69.66 20.98 -98.95 -64.91 c 0 0 -30.48 -79.95 11.87 -173.75 Z M 595.7 242.19 s 31.27 -46.7 56.99 -34.43 c 0 0 39.58 22.16 56.99 119.13 c 0 0 6.33 79.16 -27.7 124.67 c 0 0 -43.54 68.47 -113.99 20.18 c 0 0 -54.22 -29.14 -26.52 -124.4 c 0.01 0 8.32 -41.83 54.23 -105.15 Z M 769.84 468.97 s 57.39 -37.6 82.72 12.27 c 0 0 34.83 70.85 -19.79 150 c 0 0 -52.24 72.43 -120.71 16.23 c 0 0 -36.81 -36.41 0 -109.63 c 0 0 25.73 -45.52 57.78 -68.87 Z" fill="#ffffff" /><path d="M 359.14 205.78 S 324.82 131.77 411.97 88 c 0 0 -29.66 22.2 -14.21 71.44 c 0 0 10.94 38.29 11.26 44.41 c 0 0 -18.94 -33.47 -22.5 -38.29 c 0 0 -15.47 -18.99 -20.94 6.44 l -6.44 33.78 Z M 181.31 454.18 s -31.38 -57.55 36.22 -97.18 c 0 0 -22.62 19.35 -7.68 58.02 c 0 0 10.77 30.13 11.34 35.02 c 0 0 -16.93 -25.85 -20.04 -29.53 c 0 0 -13.39 -14.42 -16.45 6.25 l -3.39 27.42 Z M 609.21 88.47 s 86.31 33.17 56.72 116.84 c 0 0 -5.45 -70.8 -30.23 -34.75 c 0 0 -14.48 25.42 -16.73 34.75 c 0 0 -5.66 -1.5 9.33 -48.27 c 0 0 15.56 -41.57 -19.09 -68.57 Z M 820.41 353.59 s 64.39 41.23 26.51 104.08 c 0 0 7.36 -58.25 -18.7 -33.18 c 0 0 -15.96 18.18 -19.34 25.37 c 0 0 -4.33 -2.16 15.59 -37.55 c -0.01 0 19.51 -31.08 -4.06 -58.72 Z" fill="#ffffff" /></svg>