<?xml version="1.0" standalone="no"?><!DOCTYPE svg PUBLIC "-//W3C//DTD SVG 1.1//EN" "http://www.w3.org/Graphics/SVG/1.1/DTD/svg11.dtd"><svg class="icon" width="200px" height="200.00px" viewBox="0 0 1024 1024" version="1.1" xmlns="http://www.w3.org/2000/svg"><path d="M419.143 512a92.857 92.857 0 1 0 185.714 0 92.857 92.857 0 1 0-185.714 0z" fill="#ffffff" /><path d="M512 257.238C231.048 257.238 62 512 62 512s169.048 254.762 450 254.762C792.159 766.762 962 512 962 512S792.159 257.238 512 257.238z m0 433.333c-98.413 0-178.571-80.158-178.571-178.571S413.587 333.429 512 333.429 690.571 413.587 690.571 512 610.413 690.571 512 690.571z" fill="#ffffff" /></svg>