<?xml version="1.0" standalone="no"?><!DOCTYPE svg PUBLIC "-//W3C//DTD SVG 1.1//EN" "http://www.w3.org/Graphics/SVG/1.1/DTD/svg11.dtd"><svg class="icon" width="200px" height="200.00px" viewBox="0 0 1024 1024" version="1.1" xmlns="http://www.w3.org/2000/svg"><path d="M512 42.666667l350.592 77.909333a42.666667 42.666667 0 0 1 33.408 41.642667v426.112a256 256 0 0 1-114.005333 212.992L512 981.333333l-269.994667-180.010666A256 256 0 0 1 128 588.373333V162.218667a42.666667 42.666667 0 0 1 33.408-41.642667L512 42.666667zM213.333333 588.330667a170.666667 170.666667 0 0 0 75.989334 141.994666L512 878.805333l222.677333-148.48A170.666667 170.666667 0 0 0 810.666667 588.373333V196.437333L512 130.133333 213.333333 196.437333v391.893334zM682.666667 426.666667l-213.333334 298.666666v-213.333333H341.333333l213.333334-298.666667v213.333334h128z" fill="#ffffff" /></svg>