<?xml version="1.0" standalone="no"?><!DOCTYPE svg PUBLIC "-//W3C//DTD SVG 1.1//EN" "http://www.w3.org/Graphics/SVG/1.1/DTD/svg11.dtd"><svg class="icon" width="48px" height="48.00px" viewBox="0 0 1024 1024" version="1.1" xmlns="http://www.w3.org/2000/svg"><path d="M330.656 209.152A90.656 90.656 0 0 0 240 299.808v633.504A90.656 90.656 0 0 0 330.656 1024h489.408a90.688 90.688 0 0 0 90.688-90.656V299.808a90.656 90.656 0 0 0-90.688-90.656H330.656z m476.576 622.592c0 29.088-23.584 52.704-52.672 52.704H396.192a52.64 52.64 0 0 1-52.64-52.704V405.92c0-29.12 23.552-52.672 52.64-52.672h358.336c29.088 0 52.672 23.584 52.672 52.672v425.824z" fill="#ffffff" /><path d="M457.952 700.416l20.608-39.488v91.264c0 11.136 6.944 21.312 16.832 26.24 17.728 8.704 49.728 20.32 93.184 20.32 38.976 0 67.712-9.344 85.568-17.6 12.544-5.792 20.544-18.304 20.544-32.032v-88.192l1.12 2.016 19.552 36.512c32.64-29.44 52.704-69.952 52.704-114.688 0-89.856-81.344-162.752-181.664-162.752-100.384 0-182.016 72.896-182.016 162.752 0.064 45.248 20.32 86.208 53.568 115.648z m151.168-95.872c0-5.568 4.96-8.224 10.56-8.224h64.896c5.6 0 10.08 2.656 10.08 8.224v0.032c0 28.096-19.328 51.008-42.848 51.008-23.456 0-42.688-22.944-42.688-51.04z m-22.624 47.136c3.136 0 6.112 1.344 8.224 3.68l25.504 28.704-12.384 10.944-14.144-7.2a15.168 15.168 0 0 0-14.016 0.064l-13.472 7.072-12.512-10.816 24.672-28.672a10.912 10.912 0 0 1 8.128-3.776z m-103.36-47.136c0-5.568 3.712-8.224 9.312-8.224h64.928c5.632 0 11.232 2.656 11.232 8.256 0 28.096-19.264 51.008-42.784 51.008-23.488 0-42.72-22.944-42.72-51.008v-0.032zM735.232 54.752c0-29.12-23.584-52.672-52.672-52.672h-214.336c-29.088 0-52.64 23.584-52.64 52.672v122.912h319.68V54.752z" fill="#ffffff" /></svg>