<?xml version="1.0" standalone="no"?><!DOCTYPE svg PUBLIC "-//W3C//DTD SVG 1.1//EN" "http://www.w3.org/Graphics/SVG/1.1/DTD/svg11.dtd"><svg class="icon" width="48px" height="48.00px" viewBox="0 0 1024 1024" version="1.1" xmlns="http://www.w3.org/2000/svg"><path d="M907.605333 489.244444l-46.580622 0C849.760711 319.146667 713.386667 182.772622 543.288889 171.508622L543.288889 124.928c0-12.447289-10.080711-22.528-22.528-22.528l-0.455111 0c-12.447289 0-22.528 10.080711-22.528 22.528l0 46.580622C327.68 182.772622 191.305956 319.146667 180.041956 489.244444L133.461333 489.244444c-12.447289 0-22.528 10.080711-22.528 22.528l0 0.455111c0 12.447289 10.080711 22.528 22.528 22.528l46.580622 0C191.305956 704.853333 327.68 841.227378 497.777778 852.491378l0 46.580622c0 12.447289 10.080711 22.528 22.528 22.528l0.455111 0c12.447289 0 22.528-10.080711 22.528-22.528l0-46.580622C713.386667 841.227378 849.760711 704.853333 861.024711 534.755556l46.580622 0c12.447289 0 22.528-10.080711 22.528-22.528l0-0.455111C930.133333 499.325156 920.052622 489.244444 907.605333 489.244444zM792.576 489.244444l-39.958756 0c-10.752-110.478222-98.861511-198.587733-209.339733-209.339733L543.277511 239.957333C675.726222 250.948267 781.585067 356.807111 792.576 489.244444zM645.461333 534.755556l72.783644 0c-10.490311 91.613867-83.342222 164.465778-174.956089 174.956089L543.288889 636.928c0-12.447289-10.080711-22.528-22.528-22.528l-0.455111 0c-12.447289 0-22.528 10.080711-22.528 22.528l0 72.783644C406.163911 699.221333 333.312 626.369422 322.821689 534.755556l72.783644 0c12.447289 0 22.528-10.080711 22.528-22.528l0-0.455111c0-12.447289-10.080711-22.528-22.528-22.528l-72.783644 0c10.490311-91.613867 83.342222-164.465778 174.956089-174.956089l0 72.783644c0 12.447289 10.080711 22.528 22.528 22.528l0.455111 0c12.447289 0 22.528-10.080711 22.528-22.528l0-72.783644C634.902756 324.778667 707.754667 397.630578 718.244978 489.244444L645.461333 489.244444c-12.447289 0-22.528 10.080711-22.528 22.528l0 0.455111C622.933333 524.674844 633.014044 534.755556 645.461333 534.755556zM497.777778 239.957333l0 39.958756C387.299556 290.656711 299.190044 378.766222 288.438044 489.244444L248.490667 489.244444C259.4816 356.807111 365.340444 250.948267 497.777778 239.957333zM248.490667 534.755556l39.958756 0c10.752 110.478222 98.861511 198.587733 209.339733 209.339733l0 39.958756C365.340444 773.051733 259.4816 667.192889 248.490667 534.755556zM543.288889 784.042667l0-39.958756C653.767111 733.343289 741.876622 645.233778 752.628622 534.755556l39.958756 0C781.585067 667.192889 675.726222 773.051733 543.288889 784.042667z" fill="#ffffff" /></svg>