<?xml version="1.0" standalone="no"?><!DOCTYPE svg PUBLIC "-//W3C//DTD SVG 1.1//EN" "http://www.w3.org/Graphics/SVG/1.1/DTD/svg11.dtd"><svg class="icon" width="48px" height="48.00px" viewBox="0 0 1024 1024" version="1.1" xmlns="http://www.w3.org/2000/svg"><path d="M844.7 332.2l-26-5.2c-25.6-5.1-50.8 11.6-55.9 37.2l-26.9 134.1L544.3 87.4c-11-23.7-39.4-34-63.1-23-23.7 11-34 39.4-23 63.1l146.7 314.6c-15.6-0.7-31.4 0.6-46.9 4.2L391.8 89.9c-11-23.7-39.4-34-63.1-23-23.7 11-34 39.4-23 63.1l164.6 353-40.2 18.7-145-311c-11-23.7-39.4-34-63.1-23s-34 39.4-23 63.1l146.6 314.5c-12.8 9.6-23.9 20.9-33.4 33.2L179.7 294.1c-11-23.7-39.4-34-63.1-23s-34 39.4-23 63.1L292 759.9l26.1 56 18.1 38.8C377 942.2 482 980.5 569.6 939.6l146.5-68.3C780 841.5 817.4 777.5 817.2 711l64.7-323c5.2-25.6-11.6-50.7-37.2-55.8z" fill="#ffffff" /></svg>