<?xml version="1.0" standalone="no"?><!DOCTYPE svg PUBLIC "-//W3C//DTD SVG 1.1//EN" "http://www.w3.org/Graphics/SVG/1.1/DTD/svg11.dtd"><svg class="icon" width="32px" height="17.43px" viewBox="0 0 1880 1024" version="1.1" xmlns="http://www.w3.org/2000/svg"><path d="M1670.712372 89.265834l-28.592962-4.416799L1504.268785 0h-23.246311l13.250398 41.14597L1418.024972 0h-32.777299l18.597049 70.901249L1255.300795 165.048808 661.357548 192.944381l-162.724177 16.737344a318.706924 318.706924 0 0 0-285.697162 179.229058l-83.68672 109.490125-97.634506 69.738933L0 629.975028v1.627242l23.246311 30.917594h69.738933a234.787741 234.787741 0 0 0 194.571623-104.6084L348.694665 479.338933l-11.623155 88.568445-55.093757 91.125539L162.724177 735.745743 103.678547 1019.583201v3.486947h170.860386v-43.470602l-29.522815-29.522815h-46.492622L211.773893 883.359818l46.492622-83.454256 220.839955-116.231555 56.488536-46.492622-85.313962 164.583882v1.162315l104.840863 218.98025v1.627242h169.000681v-43.935528l-29.290352-29.522815h-83.221793L581.157775 876.618388l-13.250397-57.650851 116.231555-102.283769 92.985244-102.051305h90.660613l130.411805 15.110102v222.69966L1046.083995 1020.97798V1022.837684h169.465608v-43.238138L1185.561862 950.076731h-79.269921l-21.386606-72.296027 72.993416-229.44109 44.167991 5.114188 16.039955 53.466516 160.399546 162.724177 72.760953 152.728263v1.627242h169.000681v-44.400454l-29.522815-29.522815h-74.155732l-65.78706-126.459932L1367.348014 674.143019v-23.246311l146.684222-162.724177 71.366175-145.289444h85.546424l127.854711 12.553008h1.627242l78.572531-95.774801v-65.089671l-164.118956-50.676958z" fill="#000000" /></svg>